<?xml version="1.0" encoding="utf-8"?>
<!-- Generator: Adobe Illustrator 26.2.1, SVG Export Plug-In . SVG Version: 6.00 Build 0)  -->
<svg version="1.1" id="Calque_1" xmlns="http://www.w3.org/2000/svg" xmlns:xlink="http://www.w3.org/1999/xlink" x="0px" y="0px"
	 viewBox="0 0 152 65" style="enable-background:new 0 0 152 65;" xml:space="preserve">
<g>
	<path d="M1.05,19.81h3.59c0.13,2.47,1.76,4.14,4.91,4.14c3.17,0,4.78-1.28,4.78-3.24c0-1.79-1.09-2.66-3.14-3.14l-3.46-0.83
		c-3.49-0.87-5.71-2.63-5.71-6.12c0-3.72,2.92-6.38,7.73-6.38s7.95,2.98,8.02,6.96h-3.59c-0.1-2.02-1.54-3.66-4.46-3.66
		c-2.69,0-4.1,1.25-4.1,2.98c0,1.64,1.06,2.34,3.11,2.85l3.46,0.87c3.85,0.99,5.77,3.05,5.77,6.48c0,4.01-3.53,6.54-8.4,6.54
		C4.09,27.25,1.17,24.2,1.05,19.81z"/>
	<path d="M22.28,4.51h14.43v3.3H25.91v5.93h9.81v3.27h-9.81v6.6h10.81v3.34H22.28V4.51z"/>
	<path d="M41.21,4.51h9.04c4.17,0,6.8,2.5,6.8,6.32c0,4.07-2.41,6.41-6.8,6.41H45.6l12.63,9.71h-5.87l-7.6-6.06v6.06h-3.56V4.51z
		 M49.77,13.94c2.24,0,3.59-0.77,3.59-3.08c0-2.28-1.35-3.08-3.59-3.08h-5v6.16H49.77z"/>
	<path d="M60.81,17.66v-3.85c0-6.12,3.53-9.59,9.17-9.59c5.39,0,8.82,3.08,9.11,8.11h-3.62c-0.26-2.85-1.96-4.68-5.48-4.68
		c-3.85,0-5.55,2.28-5.55,6.16v3.85c0,3.88,1.7,6.12,5.55,6.12c3.56,0,5.55-1.54,5.55-5.55v-0.19h-5.58v-3.3h9.17v3.4
		c0,5.45-3.24,9.11-9.14,9.11C64.34,27.25,60.81,23.78,60.81,17.66z"/>
	<path d="M82.66,23.62h4.62V7.85h-4.62V4.51h12.89v3.34H90.9v15.77h4.65v3.34H82.66V23.62z"/>
	<path d="M99.08,17.66v-3.85c0-6.12,3.53-9.59,9.17-9.59s9.17,3.46,9.17,9.59v3.85c0,6.12-3.53,9.59-9.17,9.59
		S99.08,23.78,99.08,17.66z M108.25,23.88c3.78,0,5.58-2.31,5.58-6.22v-3.85c0-3.94-1.8-6.16-5.58-6.16c-3.75,0-5.55,2.21-5.55,6.16
		v3.85C102.71,21.57,104.5,23.88,108.25,23.88z"/>
	<path d="M2.65,33.92h7.44c5.96,0,9.49,3.82,9.49,9.94v2.57c0,6.12-3.53,9.94-9.49,9.94H2.65V33.92z M15.99,46.43v-2.57
		c0-4.2-2.05-6.54-5.9-6.54H6.24v15.65h3.85C13.94,52.97,15.99,50.63,15.99,46.43z"/>
	<path d="M35.65,50.88h-9.17l-1.54,5.48h-3.75l6.51-22.45h6.8l6.44,22.45h-3.75L35.65,50.88z M34.69,47.52l-3.62-12.79l-3.62,12.79
		H34.69z"/>
	<path d="M50.42,47.07v-3.85c0-6.12,3.53-9.59,9.17-9.59c5.45,0,8.85,3.14,9.11,8.34h-3.62c-0.22-2.98-1.86-4.91-5.48-4.91
		c-3.85,0-5.55,2.28-5.55,6.16v3.85c0,3.88,1.7,6.22,5.55,6.22c3.53,0,5.23-1.86,5.45-4.71h3.62c-0.32,5.03-3.69,8.08-9.07,8.08
		C53.95,56.65,50.42,53.19,50.42,47.07z"/>
	<path d="M71.91,47.07v-3.85c0-6.12,3.53-9.59,9.17-9.59c5.64,0,9.17,3.46,9.17,9.59v3.85c0,6.12-3.53,9.59-9.17,9.59
		C75.44,56.65,71.91,53.19,71.91,47.07z M81.08,53.29c3.78,0,5.58-2.31,5.58-6.22v-3.85c0-3.94-1.8-6.16-5.58-6.16
		c-3.75,0-5.55,2.21-5.55,6.16v3.85C75.54,50.98,77.33,53.29,81.08,53.29z"/>
	<path d="M93.15,49.22h3.59c0.13,2.47,1.76,4.14,4.91,4.14c3.17,0,4.78-1.28,4.78-3.24c0-1.79-1.09-2.66-3.14-3.14l-3.46-0.83
		c-3.5-0.87-5.71-2.63-5.71-6.12c0-3.72,2.92-6.38,7.73-6.38c4.81,0,7.95,2.98,8.02,6.96h-3.59c-0.1-2.02-1.54-3.66-4.46-3.66
		c-2.69,0-4.1,1.25-4.1,2.98c0,1.64,1.06,2.34,3.11,2.85l3.46,0.87c3.85,0.99,5.77,3.05,5.77,6.48c0,4.01-3.53,6.54-8.4,6.54
		C96.2,56.65,93.28,53.61,93.15,49.22z"/>
	<path d="M118.88,37.26h-6.57v-3.34h16.74v3.34h-6.57v19.11h-3.59V37.26z"/>
	<path d="M142.71,50.88h-9.17L132,56.37h-3.75l6.51-22.45h6.8L148,56.37h-3.75L142.71,50.88z M141.75,47.52l-3.62-12.79l-3.62,12.79
		H141.75z"/>
</g>
</svg>
